<?xml version="1.0" standalone="no"?>
<!DOCTYPE svg PUBLIC "-//W3C//DTD SVG 20010904//EN"
 "http://www.w3.org/TR/2001/REC-SVG-20010904/DTD/svg10.dtd">
<svg version="1.0" xmlns="http://www.w3.org/2000/svg"
 width="225.000000pt" height="225.000000pt" viewBox="0 0 225.000000 225.000000"
 preserveAspectRatio="xMidYMid meet">

<g transform="translate(0.000000,225.000000) scale(0.100000,-0.100000)"
fill="#000000" stroke="none">
<path d="M180 1125 l0 -1125 307 0 306 0 -6 128 c-5 110 -26 268 -44 340 l-5
22 387 0 388 0 -7 -37 c-26 -148 -38 -252 -39 -343 l-2 -105 303 -3 302 -2 0
1125 0 1125 -945 0 -945 0 0 -1125z m1059 505 c83 -190 212 -373 385 -547
l122 -123 -43 -42 c-23 -23 -57 -72 -75 -110 l-33 -67 -202 -1 -203 0 0 492
c0 271 4 488 8 483 5 -6 23 -44 41 -85z m-179 -405 l0 -485 -200 0 -199 0 -27
56 c-15 31 -38 70 -53 88 -60 71 -63 59 26 149 108 111 184 202 255 311 58 87
153 267 176 334 6 18 13 32 16 32 4 0 6 -218 6 -485z"/>
</g>
</svg>
