<?xml version="1.0" standalone="no"?>
<!DOCTYPE svg PUBLIC "-//W3C//DTD SVG 20010904//EN"
 "http://www.w3.org/TR/2001/REC-SVG-20010904/DTD/svg10.dtd">
<svg version="1.0" xmlns="http://www.w3.org/2000/svg"
 width="512.000000pt" height="512.000000pt" viewBox="0 0 512.000000 512.000000"
 preserveAspectRatio="xMidYMid meet">

<g transform="translate(0.000000,512.000000) scale(0.100000,-0.100000)"
fill="#000000" stroke="none">
<path d="M821 5109 c-202 -26 -404 -131 -549 -283 -87 -92 -123 -145 -178
-260 -101 -213 -119 -458 -53 -725 79 -319 286 -547 559 -617 47 -12 127 -18
293 -21 l227 -5 0 -1564 c0 -1124 3 -1570 11 -1587 6 -14 22 -30 36 -36 17 -8
563 -11 1964 -11 l1940 0 24 25 25 24 0 2052 c0 1809 -2 2064 -16 2158 -55
373 -276 672 -585 791 -182 70 -19 64 -1919 66 -943 1 -1744 -2 -1779 -7z
m2774 -171 c-60 -43 -184 -176 -233 -251 -57 -87 -104 -194 -134 -305 -25 -94
-30 -325 -9 -442 38 -211 123 -389 249 -522 l55 -58 -1402 0 c-1258 0 -1409 2
-1474 16 -229 52 -383 218 -454 489 -23 87 -26 121 -27 265 -1 144 2 175 22
244 89 308 346 537 647 579 17 2 651 5 1410 5 l1380 1 -30 -21z m785 -8 c155
-44 311 -152 404 -279 56 -76 115 -202 144 -308 l27 -98 3 -2042 2 -2043
-1840 0 -1840 0 0 1520 0 1520 1385 0 c972 0 1400 3 1437 11 75 16 207 79 278
134 120 92 214 234 246 373 20 85 14 244 -15 355 -40 155 -144 302 -251 357
-92 47 -121 50 -537 50 -216 0 -393 3 -393 6 0 19 70 132 116 188 108 131 272
230 439 266 116 26 285 21 395 -10z m-656 -659 c-46 -93 -55 -194 -25 -290
l19 -61 -168 0 -167 0 -7 33 c-13 62 -19 213 -12 290 l8 77 188 0 189 0 -25
-49z m576 13 c92 -50 146 -148 171 -314 24 -156 -4 -286 -83 -391 -114 -151
-273 -228 -444 -215 -158 12 -286 70 -385 176 -50 54 -129 181 -129 208 0 7
95 12 283 14 l284 3 49 30 c63 39 103 104 111 178 5 50 3 58 -20 81 -51 51
-137 17 -137 -54 0 -37 -39 -80 -73 -80 -54 0 -94 91 -83 193 9 88 40 134 114
171 52 26 109 35 203 32 73 -3 95 -8 139 -32z"/>
</g>
</svg>
